# xmcd
#
# Track frame offsets: 
#        150
#        62169
#        77198
#        91391
#        110668
#        145509
#        177881
#        190446
#        211665
#        225574
#        266764
#
# Disc length: 3751 seconds
#
# Revision: 0
# Processed by: cddbd v1.5.2PL0 Copyright (c) Steve Scherf et al.
# Submitted via: ExactAudioCopy v1.0b1
#
DISCID=960ea50b
DTITLE=Michelangeli - The Complete Warner Recordings, CD1
DYEAR=2015
DGENRE=Classical
TTITLE0=Bach Partita No.2 in D minor,BWV1004:Chaconne
TTITLE1=Scarlatti Sonata in D minor,Kk9
TTITLE2=Scarlatti Sonata in C minor,Kk11
TTITLE3=Galuppi Sonata in B-flat:Presto
TTITLE4=Beethoven piano sonata No.3 in C,OP2-Allegretto con brio
TTITLE5=Beethoven piano sonata No.3 in C,OP2-Adagio
TTITLE6=Beethoven piano sonata No.3 in C,OP2-Scherzo
TTITLE7=Beethoven piano sonata No.3 in C,OP2-Allegro assai
TTITLE8=Chopin mazurka in A minor.Op.68 No.2
TTITLE9=Chopin Scherzo No.2 in B-flat minor,Op.31
TTITLE10=Chopin Waltz in A-FLAT,Op69 No.1
EXTD=
EXTT0=
EXTT1=
EXTT2=
EXTT3=
EXTT4=
EXTT5=
EXTT6=
EXTT7=
EXTT8=
EXTT9=
EXTT10=
PLAYORDER=
